<svg xmlns="http://www.w3.org/2000/svg" version="1.1" xmlns:xlink="http://www.w3.org/1999/xlink" xmlns:svgjs="http://svgjs.dev/svgjs" width="100%" height="100%" viewBox="0 0 1000 600"><rect width="1000" height="600" x="0" y="0" fill="#2cbbb7"/><g><rect width="333.3333333333333" height="333.3333333333333" rx="13.333333333333334" ry="13.333333333333334" y="154.44357112604666" fill="#fbeaeb" transform="matrix(0.9453841973286318,0,0,0.9453841973286317,0,-3.5725608383146152)" x="132.2213134765625"/><path d="M275.63798026723305 246.11025089666785L275.63798026723305 254.32764151956226Q266.7031983994828 254.55590237019823 263.0836334822555 259.7080758559812Q259.43145987208015 264.89285803471216 259.43145987208015 276.37111795240594L259.43145987208015 276.37111795240594L259.43145987208015 393.30589086391126L249.81189545242208 393.30589086391126L177.7466840373561 283.18633477853666L177.7466840373561 363.72980636008094Q177.7466840373561 375.2406749707227 181.26842287573942 380.3928484565057Q184.79016171412272 385.5450219422887 193.92059573956095 385.8058914858727L193.92059573956095 385.8058914858727L193.92059573956095 394.02328210876703L183.355379224411 393.30589086391126Q173.051032252845 392.8493691626393 171.87711930671725 392.8493691626393L171.87711930671725 392.8493691626393Q171.15972806186136 392.8493691626393 160.8227723973474 393.30589086391126L160.8227723973474 393.30589086391126L149.80103418092554 394.02328210876703L149.80103418092554 385.8058914858727Q158.70320735572778 385.5450219422887 162.3553809659031 380.26241368471375Q166.00755457607838 374.9798054271388 166.00755457607838 363.72980636008094L166.00755457607838 363.72980636008094L166.00755457607838 270.27329237113116Q166.00755457607838 263.0015538437286 161.7684244928392 258.89285853228137Q157.52929440960003 254.78416322083416 150.9749471270533 254.78416322083416L150.9749471270533 254.78416322083416L150.9749471270533 246.56677259793977Q155.18146851734448 246.79503344857574 163.39885914023887 246.79503344857574L163.39885914023887 246.79503344857574Q171.61624976313328 246.79503344857574 175.85537984637244 246.56677259793977L175.85537984637244 246.56677259793977L247.92059126143846 356.91458953395033L247.92059126143846 276.37111795240594Q247.92059126143846 264.89285803471216 244.30102634421115 259.7080758559812Q240.64885273403584 254.55590237019823 231.74667955923357 254.32764151956226L231.74667955923357 254.32764151956226L231.74667955923357 246.11025089666785L244.3988524230551 246.79503344857574L253.56189514144134 247.02329429921167L262.9531987104635 246.79503344857574L275.63798026723305 246.11025089666785ZM366.0292771190715 368.88197984586395L370.4966680529466 371.7189361323394Q357.0944952513212 396.11023845743864 331.52927998009415 396.11023845743864L331.52927998009415 396.11023845743864Q313.9205857881776 396.11023845743864 303.81189097429956 383.09936997118916Q293.7031961604215 370.0558927919917 293.7031961604215 345.8928513175284L293.7031961604215 345.8928513175284Q293.7031961604215 325.6754616897724 299.8336304346443 312.077636730459Q305.93145601591914 298.4472030781977 316.00754213684917 291.76242102385896Q326.11623695072717 285.0776389695203 338.31188811327684 285.0776389695203L338.31188811327684 285.0776389695203Q352.659713010394 285.0776389695203 359.5727559153687 292.4798122687148Q366.48579882034335 299.8493768749614 368.377103011327 310.5450281619033Q370.26840720231064 321.24067944884524 370.26840720231064 336.9580694497782L370.26840720231064 336.9580694497782L311.08362950170215 336.9580694497782L311.08362950170215 341.65372123428926Q311.08362950170215 361.83850216909735 317.4423246265609 372.40371868424734Q323.76841105847166 382.96893519939727 335.50754051974934 382.96893519939727L335.50754051974934 382.96893519939727Q351.94232176553817 382.96893519939727 366.0292771190715 368.88197984586395L366.0292771190715 368.88197984586395ZM335.50754051974934 292.57763834755883Q314.83362919072135 292.57763834755883 311.57275989592205 328.28415712561184L311.57275989592205 328.28415712561184L352.88797386103 328.28415712561184Q352.39884346681004 292.57763834755883 335.50754051974934 292.57763834755883L335.50754051974934 292.57763834755883ZM445.39883575448795 378.990674659742L447.9749224973795 384.142848145525Q435.2901409406099 396.11023845743864 421.4314464377126 396.11023845743864L421.4314464377126 396.11023845743864Q410.1814473706548 396.11023845743864 405.9423172874156 388.6102390794001Q401.70318720417646 381.1102397013616 401.70318720417646 367.7080668997362L401.70318720417646 367.7080668997362L401.70318720417646 297.2732901320699L384.58362340647983 297.2732901320699L384.58362340647983 291.403725401431L401.01840465226866 287.4254648617758L408.5184040303072 257.84938035794556L418.3988379935492 257.84938035794556L418.3988379935492 287.88198656304775L443.73579241414035 287.88198656304775L443.73579241414035 297.2732901320699L418.3988379935492 297.2732901320699L418.3988379935492 363.72980636008094Q418.3988379935492 372.8928490784672 420.7466638858048 378.2732834148861Q423.09448977806034 383.6863264442531 429.4205762099711 383.6863264442531L429.4205762099711 383.6863264442531Q434.11622799448213 383.6863264442531 437.4097059822296 382.6102395769693Q440.7031839699769 381.56676140263346 445.39883575448795 378.990674659742L445.39883575448795 378.990674659742Z " fill="#10615e" transform="matrix(0.9453841973286318,0,0,0.9453841973286317,0,-3.5725608383146152)"/><path d="M615.1640670011633 246.1102472941132Q622.5138742874617 246.1102472941132 631.972756708089 247.48434169981246Q641.3996834448631 248.85843610551171 648.9731805181358 250.93555555598732L648.9731805181358 250.93555555598732Q647.3753963254622 265.6671258124375 647.3753963254622 289.1225977608853L647.3753963254622 289.1225977608853L639.0988742074132 289.1225977608853Q639.0988742074132 274.16733771746084 631.0460418763384 265.21974623848894Q622.9932095452637 256.24019907566355 609.859423481487 256.24019907566355L609.859423481487 256.24019907566355Q587.7780459387386 256.24019907566355 577.903739628016 273.59213540809833Q567.99747763344 290.97602742438664 567.99747763344 322.9636669617112L567.99747763344 322.9636669617112Q567.99747763344 352.8741870485602 580.4282386524402 367.3501118341826Q592.8589996714404 381.8579923036585 612.4158781897648 381.8579923036585L612.4158781897648 381.8579923036585Q621.1397798817625 381.8579923036585 630.6945293539502 378.8541580214322Q640.2492788261382 375.88227942305934 649.2288259889635 370.3539461164089L649.2288259889635 370.3539461164089L652.2007045873363 376.10596921003366Q640.4729686131125 386.01223120460975 627.5948280201635 391.0612292534581Q614.7166874272148 396.1102273023066 602.5096161951888 396.1102273023066L602.5096161951888 396.1102273023066Q587.33066636479 396.1102273023066 575.2514178681779 388.53673022903394Q563.1721693715658 380.93127747190783 556.0460518722418 365.8801503769229Q548.8879786890643 350.79706759808454 548.8879786890643 328.9393798423103L548.8879786890643 328.9393798423103Q548.8879786890643 289.8256228056617 566.1440479699386 267.96793504988744Q583.4001172508131 246.1102472941132 615.1640670011633 246.1102472941132L615.1640670011633 246.1102472941132ZM714.8018892562862 287.3011237812375Q750.2087869659322 287.3011237812375 750.2087869659322 336.28918712860866L750.2087869659322 336.28918712860866Q750.2087869659322 364.82561280975835 738.7047407786827 380.4838978979592Q727.200694591433 396.1102273023066 706.0460318804352 396.1102273023066L706.0460318804352 396.1102273023066Q686.9365329360594 396.1102273023066 677.7332959862597 383.9351117541341Q668.5300590364601 371.72804052210813 668.5300590364601 347.1221639549354L668.5300590364601 347.1221639549354Q668.5300590364601 318.3620484868114 680.5134404815117 302.8315861340244Q692.46486624271 287.3011237812375 714.8018892562862 287.3011237812375L714.8018892562862 287.3011237812375ZM709.2735559496357 294.8746208545101Q696.6191051436612 294.8746208545101 691.0907718370107 307.6568943958986Q685.5624385303602 320.439167937287 685.5624385303602 345.26873429143404L685.5624385303602 345.26873429143404Q685.5624385303602 366.6790424732597 691.2185945724245 377.6078863511468Q696.8427949306355 388.53673022903394 709.2735559496357 388.53673022903394L709.2735559496357 388.53673022903394Q721.9280067556103 388.53673022903394 727.4563400622608 375.6585896360851Q732.9527176850579 362.74849335928275 732.9527176850579 337.9189270051357L732.9527176850579 337.9189270051357Q732.9527176850579 316.50861882331003 727.3285173268468 305.70759768083684Q721.704316968636 294.8746208545101 709.2735559496357 294.8746208545101L709.2735559496357 294.8746208545101ZM827.2858964205045 287.3011237812375Q832.5905399401806 287.3011237812375 836.0417537963556 288.89890797391104L836.0417537963556 288.89890797391104Q835.3387287515793 296.50436073103714 834.8913491776307 302.35225087622234Q834.443969603682 308.23209670526103 834.1883241328542 310.0855263687624L834.1883241328542 310.0855263687624L827.5415418913324 310.0855263687624Q827.2858964205045 308.45578649223535 825.1129099184685 307.3053818735104Q822.9399234164325 306.1549772547854 820.1597789211805 306.1549772547854L820.1597789211805 306.1549772547854Q805.4282086647303 306.1549772547854 799.0051162101827 328.236354797534L799.0051162101827 328.236354797534L799.0051162101827 369.4272312846582Q799.0051162101827 376.80899425481005 800.251387880468 380.13238537557106Q801.5296152346068 383.455776496332 805.3323416131699 384.9576936374452Q809.135067991733 386.45961077855833 817.6352798967563 386.6833005655326L817.6352798967563 386.6833005655326L817.6352798967563 394.06506353568443L810.0298271396301 393.58572827788237Q797.6310218044833 392.91465891695947 791.3996634530565 392.91465891695947L791.3996634530565 392.91465891695947Q785.4239505724574 392.91465891695947 773.9199043852078 393.58572827788237L773.9199043852078 393.58572827788237L766.7937868858837 394.06506353568443L766.7937868858837 386.6833005655326Q774.1435941721821 386.45961077855833 777.3711182413826 384.9576936374452Q780.5986423105833 383.455776496332 781.7490469293082 380.13238537557106Q782.8994515480332 376.80899425481005 782.8994515480332 369.4272312846582L782.8994515480332 369.4272312846582L782.8994515480332 313.0574049671352Q782.8994515480332 307.08169208653607 781.7490469293082 304.33350327513756Q780.5986423105833 301.55335877988557 777.2432955059687 300.4029541611606Q773.9199043852078 299.25254954243564 766.7937868858837 299.25254954243564L766.7937868858837 299.25254954243564L766.7937868858837 292.1264320431116L794.4034977352827 287.3011237812375L798.078401378432 288.4515283999624L798.078401378432 315.5819039915594Q803.3830448981082 302.92745318558485 810.3813396620183 295.1302663253379Q817.411590109782 287.3011237812375 827.2858964205045 287.3011237812375L827.2858964205045 287.3011237812375ZM921.1716955820027 369.4272312846582L925.5496242699282 372.2073757799102Q912.4158382061516 396.1102273023066 887.3625820650302 396.1102273023066L887.3625820650302 396.1102273023066Q870.1065127841559 396.1102273023066 860.2002507895797 383.3599094447716Q850.2939887950038 370.57763590338317 850.2939887950038 346.89847416796107L850.2939887950038 346.89847416796107Q850.2939887950038 327.085950178809 856.3016573594564 313.7604300119115Q862.2773702400555 300.4029541611606 872.1516765507779 293.852038971199Q882.0579385453541 287.3011237812375 894.0093643065522 287.3011237812375L894.0093643065522 287.3011237812375Q908.0698652020795 287.3011237812375 914.8444701790154 294.5550640159754Q921.6190751559514 301.7770485668599 923.4725048194525 312.2585128707984Q925.3259344829539 322.7399771747369 925.3259344829539 338.14261679211L925.3259344829539 338.14261679211L867.326368288904 338.14261679211L867.326368288904 342.7442352670098Q867.326368288904 362.52480357230843 873.5577266403308 372.8784451408331Q879.757129307904 383.23208670935776 891.2611754951538 383.23208670935776L891.2611754951538 383.23208670935776Q907.3668401573032 383.23208670935776 921.1716955820027 369.4272312846582L921.1716955820027 369.4272312846582ZM891.2611754951538 294.6509310675358Q871.001271932053 294.6509310675358 867.8057035467059 329.6424048870867L867.8057035467059 329.6424048870867L908.2935549890537 329.6424048870867Q907.8142197312518 294.6509310675358 891.2611754951538 294.6509310675358L891.2611754951538 294.6509310675358Z " fill="#fbeaeb" transform="matrix(0.9453841973286318,0,0,0.9453841973286317,0,-3.5725608383146152)"/></g></svg>